<?xml version="1.0" encoding="utf-8"?>
<!-- Generator: Adobe Illustrator 24.3.0, SVG Export Plug-In . SVG Version: 6.00 Build 0)  -->
<svg version="1.1" xmlns="http://www.w3.org/2000/svg" xmlns:xlink="http://www.w3.org/1999/xlink" x="0px" y="0px"
	 viewBox="0 0 522 630" style="enable-background:new 0 0 522 630;" xml:space="preserve">
<style type="text/css">
	.st0{display:none;}
	.st1{display:inline;}
	.st2{fill:#FFFFFF;}
	.st3{fill:#737373;}
	.st4{fill:#800000;}
</style>
<g id="DOES_NOT_PRINT" class="st0">
</g>
<g id="White_Fill">
</g>
<g id="Shield">
	<g>
		<g>
			<path class="st4" d="M200.69,177.08c-1.61,1.21,1.9,2.9,1.59,2.81c0.13,4.98-0.59,10.1,1.1,12.63c1.07,1.57,4.42,2.73,4.99,1.22
				c0.56-1.52,3.1-4.61,3.67-5.13c1.05-0.93,0.13-1.78-0.76-0.87c-1.84,1.94-2.86,1.05-4.21-0.24c-0.65-0.74-0.9-7.71-0.43-7.92
				c0,0,3.36-0.49,4.17-0.49c0.62,0,0.57-1.94-0.08-1.94c-1.01,0-4.01,0.03-4.18-0.44c-0.38-0.96,0.6-5.66,0.77-7.77
				c0.14-1.48-0.66-1.96-1.06-0.58C205.82,169.73,202.6,175.7,200.69,177.08 M209.59,159.3c1.96-0.16,5.11,1.01,8.6,0.72
				c4.16-0.3,7.43-6.74,5.63-11.76c-1.67-4.76-6.98-3.92-10.55-5.06c-3.29-0.89-4.64-2.96-1.06-5.31c4.21-2.72,9.44,1.64,9.94,2.56
				c0.78,1.39,1.42,1.37,1.42-0.44c0.11-3.94-0.25-1.71-0.64-5.42c-0.13-1.32-1.1-1.44-1.19-0.17c-0.09,1.3-1.67,0.9-2.85,0.9
				c-1.21-0.02-4.73-0.56-7.76,1.13c-1.94,1.12-6.35,4.58-3.88,8.74c1.45,2.42,9.93,4.39,12.04,5.79c2.12,1.38,2.6,4.94,0.57,6.58
				c-2.53,2-9.39,0.31-10.44-0.9c-1.39-1.54-1.92-2.8-2.21-4.59c-0.29-1.83-1.82-1.67-1.82,0c0,1.66,0.39,7.37,0.69,8.7
				c0.27,1.39,1.67,0.93,1.79-0.12C208.02,159.66,208.67,159.37,209.59,159.3 M219.28,164.78c-0.76,1.5-1.99,2.87-4.23,3.89
				c1.36,1.19,3.14,2.72,4.31,3.49c1.34-1.5,2.58-2.89,4.13-4.35C221.96,167.51,220.18,166.74,219.28,164.78 M198.13,162.58
				c1.42-1.14,2.48-3.06,3.06-3.51c1.1-0.91,0.19-1.84-0.73-0.96c-0.74,0.72-2.68-0.96-2.76-1.08c-0.63-0.74-1.55-10.42-1.12-10.64
				c0,0,6.16-0.76,6.97-0.74c0.61,0.04,0.69-1.92,0.03-1.95c-1,0-5.7,0.65-5.87,0.19c-0.26-1.02-0.89-4.47,0.65-7.44
				c0.73-1.3-0.02-2.54-0.5-1.22c-0.54,1.35-4.4,7.34-6.9,8.32c-2.03,0.84-1.8,1.3-0.49,1.64c1.04,0.2,2.12,1.45,1.92,1.43
				c-0.21,4.96-0.69,11.09,0.85,13.69C194.21,161.95,196.9,163.65,198.13,162.58 M181.1,172.81c-1.55,1.46-2.78,2.8-5.05,4.6
				c1.06,1.21,2.85,2.74,3.01,4.83c0.14,2.11,0.06,11.88,0.19,14.33c1.66,0,1.37,0.18,4.22,0.06c-0.28-1.66-0.04-14.34-0.04-16.16
				c1.07-1.02,1.22-1.18,2.45-2.09c0.88,0.77,2.95,1.23,2.95,2.59c0,1.37,0.41,7.39-0.07,9.61c-0.6,2.71-0.33,4.67,1.13,7.41
				c1.11-1.24,5.27-4.14,6.17-4.87c0.89-0.76,0.43-1.35-0.72-1.03c-1.23,0.27-1.45,0.5-1.45-0.27c0-1.47-0.58-8.07-0.67-12.3
				c-0.15-4.23-2.22-5.47-3.4-6.06c-1.21,1.35-3.92,3.04-5.53,4.42C183.06,176.97,182.45,174.95,181.1,172.81 M164.72,175.7
				c0.72,1.84,3.02,5.34,4.06,5.96c-1.79,1.79-6.18,4.77-7.42,5.64C159.12,184.48,157.91,179.87,164.72,175.7 M156.99,184.3
				c-1.07,7.94,6.42,12.67,10.02,14.2c0.91-1.82,2.75-4.79,4.55-6.87c1.37-1.6-0.14-2.02-1.37-0.79c-1.66,1.82-6.61,0.09-7.92-2.3
				c2.39-1.8,8.62-7.02,11.34-9.24c-1.79-1.68-4.56-5.85-4.99-8.25C166.2,172.68,158.2,176.04,156.99,184.3 M154.93,146.12
				c-2.89,4.42-4.47,11.38,0.54,15.46c2.36,1.96,4.31,3.5,9.11,2.64c0.96-1.91,1.38-2.54,3.07-4.74c-3.31,0.54-5.87-0.06-8.29-1.89
				c-4.98-3.86-3.44-10.08-1.97-12.21c2.69-3.99,6.5,1.72,7.19,2.49c0.89-1.06,2.42-2.57,3.92-3.75c-1.49-1.97-2.7-3.79-3.7-4.97
				C161.61,140.3,156.93,143.16,154.93,146.12 M178.06,134.33c-0.38-0.49-1.11-1.28-1.15-2.27c0-0.65,0.08-7.47,0.08-8.33
				c0-0.8-1.61-0.72-1.61,0c-0.07,1.22,0.11,3.28-0.98,4.96c-2.99,4.64-8.69,6.54-12.7,0.86c-1.36-1.88-1.69-4.74-1.86-6.77
				c-0.27-2.72,1.79-6.24,1.91-6.56c5.1-6.68,12.18-1.73,12.75,1c0.38,1.81,0.79,4.03,0.79,5.2c-0.04,0.77,1.62,0.69,1.66-0.11
				c0-0.83,0.05-11.1,0.05-11.82c0.03-0.67-1.35-0.89-1.38,0c-0.08,1.62-1.04,1.76-2.28,1.36c-2.58-0.77-8.3-2-11.62-0.09
				c-2.93,1.72-7.41,5.75-7.33,10.83c0.09,8.34,3.24,9.04,6.9,11.29c3.43,2.02,8.16,0.71,12.49-0.54c1.72-0.47,1.93,0.61,2.75,1.84
				C177.93,137.04,179.06,135.84,178.06,134.33 M180.51,158.29c-0.02,0.61,0,1.13,0.01,1.69c-0.61,0.15-1.29,0.29-2.14,0.72
				c-1.15-0.97-6.61-2.76-3.03-5.64c2.19,1.29,3.04,0.28,5.16-1.02C180.53,155.88,180.51,157.63,180.51,158.29 M180.48,152.63
				c-3.14,2.04-4.14,1.97-6.3-0.47c-1.07-1.24-0.98-3.59-0.48-4.48c0.97-1.53,2.69-3.07,3.5-3.06c0.71,0.05,3.24,3.12,3.06,4.46
				C180.39,149.83,180.44,151.19,180.48,152.63 M180.26,141.14c-2.82,0.26-6.88,3.55-8.09,6.39c-0.49,1.13,0.21,5.22,0.72,5.67
				c0.37,0.32,0.66,0.54,0.98,0.8c-1.85,1.72-3.58,3.18-3.53,5.73c0.08,2.46,2.03,4.65,4.56,5.79c1.36-2.06,3.46-3.32,5.72-3.85
				c0.19,1.97,0.65,3.4,1.93,4.39c0.93-1.02,4.63-4.23,5.35-4.95c0.78-0.74,0.2-1.63-0.72-0.74c-0.54,0.5-1.87-0.25-2.26-0.89
				c0-1.07,0-12.39,0.48-12.91C183.72,144.77,182.13,140.93,180.26,141.14 M200.72,113.5c1.11-1.09-0.07-1.88-1.06-0.93
				c-0.73-0.88-2.61-2.81-3.61-3.99c-1.07,0.89-3.5,2.35-4.87,3.11c-1.07-1.22-2.38-1.22-4.51-2.89c-1.18,0.9-3.79,2.82-5.2,4.53
				c2.48,0.72,4.35,0.87,4.51,2.99c0.09,1.74-0.18,12.4-0.04,14.36c1.33,0.29,2.95,0.16,4.83,0.06c0.15-1.53,0.08-14.91,0.08-16.39
				c0.72-0.4,1.45-0.79,1.8-1.12c0.78,0.6,2.33,2.86,3.58,3.6C197.21,116.12,199.66,114.56,200.72,113.5 M208.22,118.18
				c-1.64-5.26-1.02-7.07,2.25-9.67c0.73,1.81,2.61,3.12,3.66,3.75C212.28,114.05,209.41,117.3,208.22,118.18 M218.85,124.69
				c-6.48,1.63-9.52-3.56-10.16-4.95c2.62-2.68,7.08-7.06,9.79-9.29c-1.79-1.65-2.53-4.39-5.72-4.63
				c-2.78,0.08-9.26,3.23-10.4,11.46c-1.09,7.9,6.33,12.17,12.2,12.41c1.96,0,4.41-2.54,5.62-3.13
				C222.79,125.28,221.82,124.01,218.85,124.69 M237.09,115.1c-0.39,0.31-1.5,1.21-2.7,2.17c-0.71,0.12-1.43,0.2-2.16,0.11
				c-2.22-0.31-3.29-1.99-4.31-3.33c-1.06-1.41,1.67-2.57,3.01-2.43C232.29,111.81,235.3,113.42,237.09,115.1 M232.42,121.32
				c1.48,0.67,2.97,1.33,4.61,2.29c2.36,1.34,1.15,3.88-1.4,5.06c-2.59,1.19-7.22-2.16-7.94-3.53
				C228.63,124.31,230.42,122.9,232.42,121.32 M243.55,112.19c-1.8-1.23-3.75-4.22-8.09-4.42c-4.36-0.17-9.28,3.76-10.88,6.24
				c-2.12,3.27,0.48,6.15,3.25,8.27c-1.77,1.52-4.24,3.86-6.52,5.99c0.91,0.99,5.9,3.35,8.7,3.28c4.24-0.09,8.15-2.28,10.56-4.22
				c4.4-3.48,2.88-7.18-1.6-9.8c-0.43-0.26-0.84-0.33-1.27-0.42C240.49,114.94,242.92,112.97,243.55,112.19 M248.93,137.49
				l-2.64-2.74l-2.66,2.39l0.05,3.29l1.62,1.67h1.65l1.97-1.79V137.49z M247.75,118.92c-1.02-0.06-2.62,2.76,3.54,2.52
				C252.26,121.41,252.97,119.22,247.75,118.92 M247.67,122.61c-1.06-0.07-2.66,1.87,3.52,2.51
				C252.15,125.23,253.44,122.97,247.67,122.61 M251.69,163.99l2.29-2.46c-2.56-0.48-2.56-0.31-3.92-1.54l0.1-11.82l-2.23-3.3
				l-1.19,0.16l-5.14,4.74c-1.38,1.25-0.14,1.83,1.4,0.46l2.65,1.62l0.1,11.13c0.27,1.33,1.44,1.79,3.08,3.48L251.69,163.99z
				 M235.96,185.02c1.91,1.29,3.01,1.12,5.42,0.89c-0.1,1.3-0.19,2.5-0.19,3.04c0,0.57,0.24,1.04,0.4,1.52
				c-1.25,0.45-2.83,0.71-4.06,1.33C236.42,190.83,232.34,188.04,235.96,185.02 M241.48,184.65c-2.09,0.04-3.88-0.6-6.16-2.6
				c-0.43-0.37-0.84-2.95-0.35-3.8c1-1.59,1-2.09,1.88-2.07c0.68,0,4.88,2.54,4.65,3.89C241.67,181.04,241.59,182.86,241.48,184.65
				 M234.22,183.67c-1.85,1.91-3.23,4.01-3.2,6.66c0.09,2.52,0.93,5.03,3.5,6.17c2.27-1.68,5.2-3.71,8.02-4.24
				c1.38,1.66,3.5,2.77,4.77,3.77c0.88-1.07,3.69-3.35,4.47-4.06c0.74-0.76,0-1.81-0.78-0.82c-0.6,0.91-2.58,0.25-3.15-0.68
				c0-1.08-1.03-12.42-0.57-12.94c-1.64-1.83-4.46-5.94-6.36-5.74c-2.76,0.28-6.89,4.23-7.78,5.52c-0.67,0.97,0.2,5.64,0.73,6.09
				C234.01,183.51,234.08,183.55,234.22,183.67 M226.83,156.68c1.73,4.9,5.79,6.45,8.82,6.68c0.9-1.68,2.57-4.23,3.49-5.41
				c1.36-1.81-0.02-2.89-0.98-0.81c-0.74,1.61-4.67-0.15-6.09-1.52c-1.91-1.78-3.1-6.46-1.58-8.1c1.54-1.66,3.75-0.9,6.6-0.98
				c1.88-0.09,2.28-1.83,2.6-2.71c-0.9-0.43-2.26-1.19-4.04-2.27c-1.84,1.17-4.66,3.58-5.89,4.59
				C228.24,147.44,225.11,151.9,226.83,156.68 M225.73,192.22l2.23-2.47c-2.51-0.46-1.34-0.44-2.67-1.66l-0.08-10.21l-3.26-4.79
				l-1.24,0.17l-5.11,4.78c-1.36,1.18-0.16,1.75,1.41,0.44l3.38,1.75l0.08,10.82c0.29,1.33,1.47,1.64,3.12,3.34L225.73,192.22z
				 M268.31,251.15c0,0,2.07-2.24,2.06-3.84c-0.01-2.17-2.05-3.75-2.05-3.75c1.76,0.5,5.93,2.85,7.42,3.83L268.31,251.15z
				 M281.41,247.2v-0.28c-4.58-0.66-8.17-3.86-12.36-5.45c-5.79-2.19-11.93,2.28-11.93,2.99c0,1.56,1.64,2.36,6.33-0.59
				c-3.67,4.25,0.5,7.7,0.5,7.7c-1.52-0.23-3.7-0.74-5.09-1.53c-0.28,1.53,1.83,2.1,2.84,2.76
				C269.46,256,274.58,248.52,281.41,247.2 M333.96,175.99c-1.19,1.22-3.28,2.62-5.23,4.78c1.62,0.12,2.96,0.46,3.74,2.02
				c0.8,1.54,0.13,8.03,0.24,10.53c0.13,2.43,1.6,2.94,3.53,4.95c1.92-0.49,7.28-2.73,9.08-3.97c-0.16,1.99,2.36,4.23,3.85,4.67
				c0.99-1.09,2.08-1.69,3.54-3.05c-1.43-0.96-1.24-1.08-1.78-2.99c-0.42-1.83,0.1-8.77,0.15-11.74c-1.13-1.72-3-3.78-4.9-5.21
				c-1.35,1.23-3.16,2.88-5.29,5.11c1.58-0.21,4.7,0.42,4.85,1.75c0.09,1.72,0.36,5.48,0,8.4c-0.35,2.94-8.27,1.59-8.38-0.39
				c-0.17-2.04,0.41-7.9,0.45-10.67C336.7,178.48,336.04,177.54,333.96,175.99 M337.92,153.16c0.58-2.92,2.63-4.12,3.57-4.99
				c1.33,1.48,2.67,3.15,4.67,3.15c1.95,0.02,3.99-0.89,4.62-1.71c-1.61-1.3-5.29-5.17-6.03-5.9c-1.86,1.04-9.95,5.24-10.63,10.08
				c-0.98,7.15,1.28,8.58,4.42,12.5c1.77,2.23,4.73,2.34,6.06,1.99c1.45-1,6.74-6.03,7.33-6.66c0.53-0.62-0.24-1.18-0.9-0.55
				c-0.65,0.6-0.39,0.86-1.27,0.99c-0.9,0.15-4.5,0.75-6.6-0.34C340.55,160.34,337.13,157.11,337.92,153.16 M315.34,152.38
				c0.19,4.82-2.32,9.88-5.04,12.17c4.71-1.22,5.33-4.04,7.91-7.35c1.43,2.11,4.07,4.65,6.01,5.75c1.36-0.9,5.22-5.23,6.06-6.13
				c-2.78-0.74-8.15-3.58-9.49-6.58c-1.06-2.22-0.8-3.28,0.25-5.03c0.94,1.23,7.47,4.24,10.41-0.78c-3.21-1.17-6.1-3.28-7.08-4.98
				c-0.86,0.71-3.73,3.84-5.35,4.84c-0.37-1.72-3.01-3.58-5.16-3.96c-0.69,0.75-5.74,4.59-8.04,5.71c-0.71,0.34-0.44,1.88,0.55,1.49
				c0.94-0.41,2.49-1.59,4.3-2.45C312.76,145.9,315.13,148.02,315.34,152.38 M314.42,175.52c-1.93,0.96,2.57,2.74,2.27,2.66
				c-0.07,5.09-1.1,13.42,0.66,16.07c1.08,1.62,3.54,2.68,5.19,2.04c1.58-0.63,3.6-3.79,4.2-4.31c1.18-0.88,0.17-1.82-0.8-0.91
				c-0.97,0.91-3.61,0.26-3.96-0.65c-0.28-0.95-0.61-12.07-0.15-12.3c0,0,3.18-0.07,4.02-0.04c0.67,0,0.71-2.02,0.06-2.02
				c-1.16-0.02-3.71-0.25-3.86-0.71c-0.38-1.05,0.09-4.43,0.75-5.81c0.68-1.39-0.61-2-1.13-0.64
				C321.14,170.35,317.8,173.86,314.42,175.52 M296.19,178.86c1.08-1.66,1.76-1.98,2.63-1.98c0.79,0.05,3.8,2.12,3.64,3.52
				c0.15,0.91,0.18,2.8,0.17,4.73c-2.26,0.27-3.85,0.53-6.39-1.61C295.78,183.16,295.65,179.73,296.19,178.86 M297.55,186.33
				c1.66,0.93,2.5,0.35,5.07,0.08c-0.01,1.62-0.05,3.08-0.05,3.86c-1.14,0.81-2.54,1.52-4.14,2.32
				C297.15,191.53,295.28,190.64,297.55,186.33 M295.47,184.82c-1.39,1.32-3.89,4.73-3.84,7.26c0.04,2.58,1.28,5.06,2.77,6.46
				c2.56-1.78,4.16-4.24,8.4-5.87c0.53,1.98,1.93,2.28,3.58,3.54c1-1.08,4.61-5.52,5.4-6.29c0.8-0.76,0.34-1.54-0.8-0.76
				c-1.13,0.76-1.92,0.29-3.82-1.75c0.07-1.11-0.13-10.16,0.32-10.66c-1.74-1.86-3.33-4.4-5.37-4.21c-2.98,0.24-6.76,5.43-7.7,6.78
				c-0.74,0.97,0.04,4.69,0.6,5.16C295.2,184.64,295.29,184.66,295.47,184.82 M278.11,167.61c0.09,2.45,0.99,23.49,0.72,26.42
				c-0.17,1.67,2.07,3.44,4.12,4.83c0.99-1.21,3.16-4.35,4.94-5.67c1.05-0.87,0.32-1.43-0.49-1.11c-1.61,0.75-3.23,0.17-3.39-1.7
				c-0.15-1.87-0.15-19.98,0-22.59C282.77,167.79,279.27,167.72,278.11,167.61 M276.59,152.34c0.09,8.61,3.51,9.33,7.43,11.59
				c3.71,2.1,9.93,1.67,14.6,0.44c1.77-0.52,2.73-0.62,2.67,0.91c0,0.95,1.34,0.75,1.34,0.04c0-0.71,0.06-7.92,0.06-8.72
				c0-0.9-1.3-0.77-1.3,0c0,1.21,0,1.56-1.18,3.28c-3.21,4.75-11.25,4.56-15.55-1.25c-1.47-1.98-2.81-4.62-1.11-5.12
				c1.69-0.52,6.87,0.55,10.28,0.84c2.05,0.13,6.78,0.61,7.37,0.95c0.52,0.39,1.32,0.89,1.32-0.14c0.05-1.01,0.05-4.33,0.05-5.35
				c0-0.99-0.77-0.52-1.35-0.17c-0.58,0.41-5.62,1.25-7.64,1.6c-2.03,0.38-8.28,0.88-9.93,0.32c-1.68-0.56-1.12-3.93,0.38-5.87
				c4.36-5.77,13.16-5.36,16.34-0.57c1.09,1.67,1.09,2.06,1.09,3.32c0,0.75,1.26,0.84,1.26,0c0.08-0.81,0.1-9.53,0.1-10.22
				c0-0.68-1.28-0.93-1.28,0c0,0.64-1.4,1.01-2.78,0.64c-2.73-0.87-10.7,0.37-14.25,2.31C281.36,142.97,276.52,147.13,276.59,152.34
				 M310.44,102.32c-1.62-0.19-6.98,0.26-8.91,0.56c-1.93,0.3-1.93,1.24-0.32,1.43c1.6,0.17,1.91,0.5,2.76,2.66
				c0.77,2.17-3.09,12.02-4.05,14.34c-1.13-1.69-5.23-10.7-5.23-11.92c0-0.87,1.81-1.75,2.58-1.96c1.52-0.47,1.48-1.51,0.34-1.74
				c-3.21-0.46-14.49-1.45-16.48-1.69c-1.44-0.13-2.1,1.54-0.35,1.54c1.81,0.05,3.69-0.49,5.66,2.41
				c2.28,3.27,9.43,18.65,11.14,25.11c0.84-1.35,7.98-22.04,8.39-24.24c0.51-2.14,2.02-4.23,4.12-4.85
				C312.25,103.39,312.05,102.47,310.44,102.32 M320.11,106.07l2.12-1.84v-2.95l-2.85-2.77l-2.84,2.41l0.07,3.41l1.75,1.74H320.11z
				 M323.37,133.06l3.77-4.89c-2.74-0.47-3.86-0.98-5.77-3.16l0.08-12.15l-3.85-3.85l-1.32,0.15l-6.04,5.3
				c-0.62,0.92,1,0.92,1.81-0.18l4.38,2.51l0.19,11.76c0.34,1.41,1.5,2.77,3.24,4.51H323.37z M348.43,112.21
				c-1.15,0-8.86,0.16-9.06-0.28c-0.57-1.65-0.71-3.66,0.62-6.46c0.66-1.39-0.62-1.98-1.12-0.58c-0.48,1.37-4.35,6.7-8.36,8.43
				c-2.06,0.81,2.51,2.71,2.2,2.62c-0.02,5.14,0.72,12.85,1.81,15.94c0.68,1.84,2.77,4.83,4.21,3.92c0.93-0.58,2.95-4.58,3.58-5.09
				c1.11-0.9,0.02-2.45-0.91-1.52c-1.04,0.9-1.91-0.51-2.19-1.45c-0.35-0.91-1.29-12.21-0.81-12.43c0,0,9.12-1.1,10.03-1.1
				C349.05,114.21,349.08,112.21,348.43,112.21 M362.45,134.16c-1.25,0.07-2.34,0.4-3.94,1.17c-1.31-1.07-4.72-5.19-2.21-9.79
				c-0.35-0.21-0.71-0.39-1.04-0.6c2.32,1.3,5.02,2.43,7.15,3.12c-0.03,1.83-0.08,3.49-0.08,4.08
				C362.32,132.91,362.38,133.54,362.45,134.16 M362.42,126.93c-2.4-0.86-7.14-3.09-8.86-4.51c-0.46-0.36-0.5-0.57,0.06-1.46
				c1.09-1.62,2.34-3.04,3.21-2.98c0.75,0,5.57,2.58,5.41,3.94C362.41,122.87,362.43,124.89,362.42,126.93 M365.35,139.23l4.88-5.34
				c0,0-2.17-1.7-3.45-3.28c0-1.11,0-11.8,0.47-12.37c-3.67-3.27-6.34-3.68-7.93-3.48c-2.97,0.45-6.01,4.26-6.98,5.53
				c-0.7,1.01-0.52,2.28,0,2.75c0.59,0.48,1.36,0.97,2.17,1.46c-0.14-0.08-0.27-0.16-0.41-0.22c-1.4,1.31-3.42,5.07-3.35,7.63
				c0.03,2.57,2.34,6.3,3.89,7.69c1.72-1.33,4.27-3.56,8.01-4.29C363.07,137.12,363.93,138.21,365.35,139.23 M365.52,167.46
				c-1.26-0.62-5.84-4.15-6.89-6.86c-1.37-3.65-1.37-7.69,2.51-10.06c3.03,1.12,6.57,4.1,6.89,6.84
				C368.47,160.95,367.44,165.16,365.52,167.46 M369.65,166.02c1.33-2.41,3.29-6.31,3.17-9.28c-0.17-3.65-2.42-9.06-7.77-10.85
				c-6.79,2.42-10.99,7.77-11.17,14.11c-0.13,3.7,3.03,11.34,9.54,11.39C365.42,169.46,367.54,167.41,369.65,166.02 M376.05,184.48
				c-0.8-0.95-2.97-2.75-4.92-4.12c-1.12,0.92-3.42,2.59-4.88,3.36c-1.09-1.23-2.54-2.93-4.75-4.65c-1.33,0.91-5.17,4.41-6.79,5.33
				c2.34,0.06,5.82,0.83,5.95,3c0.08,1.76-0.13,12.75,0,14.76c1.43,0.3,3.12,0.16,5.2,0.04c0.1-1.56,0.07-14.22,0.1-15.76
				c0.7-0.39,1.52-0.78,1.93-1.14c0.8,0.6,3.25,3.41,4.67,4.17c0.97-0.75,3.5-2.97,4.62-4.02
				C378.35,184.28,377.08,183.53,376.05,184.48 M376.05,161.26c0.88,0.26,2.47,0.5,4.11,0.62c1.03,0.13,0.69-1.59-0.1-1.92
				c-0.8-0.29-2.57-0.63-3.66-0.65C375.22,159.31,374.67,160.83,376.05,161.26 M380.2,156.16c-0.85-0.32-2.62-0.64-3.75-0.64
				c-1.12,0-1.72,1.59-0.32,1.96c0.89,0.25,2.54,0.54,4.12,0.62C381.34,158.19,380.99,156.49,380.2,156.16 M407.96,425.62
				c-2.17,10.63-5.83,20.47-12.23,29.62c-4.47,6.49-6.29-6.12-2.44-18.33C398.78,434.72,404.24,430.48,407.96,425.62 M401.87,427.76
				c-14.28,14.1-35.69,9-52.56,16.54c-15.29,5.58-26.37,19.71-42.4,23.29c-4.71,1.52-5.49,3.88-2.48,3.8
				c1.76-0.05,11.53,10.15,27.17,2.29c5.22-2.63,21.44-11.67,24.18-12.18c-8.78,8.36-13.18,15.83-21.03,20.24
				c-4.8,2.69-24.36,9.7-43.87,5.91c-8.64-1.69-15.3,6.29-13.09,6.11c4.62-1.23,9.81-0.61,12.93,3.48
				c5.66,4.43,13.86,9.96,20.92,1.72c2.34-2.73,13.55-8.54,24.07,2.13c-11.2-0.58-10.08,19.55-31.3,17.19
				c-7.86-0.05-25.21-18.02-30.15-12.47c-8.77,9.85,18.84,19.21,6.88,31.6c-10.8,11.19-23.7-8.91-23.7-8.91
				c6.74,2.83,19.17,4.64,13.7-6.31c-2.17-4.35-6.31-8.26-6.31-16.31c-0.95-4-25.66,31.82-42.01,15.64
				c-6.42-6.36-19.43-20.31-31.22-25.62c31.21-2.66,35.96,9.84,37.45,11.84c9.98,13.47,19.21-0.21,21.33-2.61
				c3.25-3.7,7.85-8.79,6.22-9.57c-12.1-5.74-25.93-6.96-36.26-2.22c22.12-30.4,39.32-1.93,39.32-1.94
				c2.42,1.51-0.62-18.02-22.49-19.1c-13.66-0.67-25.69,11.62-35.1,11.61c-7.66-0.01-30.89-15.7-36.35-29.62
				c13.52,10.11,30.75,15.91,41.49,9.5c20.19-12.04,45.63,6.11,46.84,3.95c-5.65-4.42-18.5-21.64-53.17-11.82
				c-13.46,7.73-19.13-5.73-27.39-5.96c14.05-12.47,23.8-6.13,28.71-5.75c1.17,0-5.86-5.78-10.79-6.3
				c-38.32-3.99-62.59-14.52-62.59-14.52c-0.2,0,3.19-7.72,19.67-2.15c0,0-14.77-9.04-14.65-20.67c0.48-7.17,3.94-14.84-1.54-20.81
				c22.24-0.91,6.45,30.1,22.06,38.1c0.33,0.13-4.6-7.41,2.35-13.26c3.23,9.11,11.17,13.82,16.75,15.29
				c1.31-0.72,2.93-3.51,2.93-3.5c-5.88-9.72-6.65-21.04-5.07-34.01l0.23-0.13c1.27,0.06,3.41,4.46,4.91,7.69
				c3.24,6.98,3.16,17.01,9.63,25.28c3.58,4.56,5.8,9.11,9.01,11.32c1.39-3.23,0.36-8.78,0.14-10.26
				c-0.73-5.27-4.03-14.5,4.98-22.64c4.21,12.16,9.94,8.63,10.71,14.46c1.07,8.17,0.72,6.87-0.12,13.14
				c0.43,8.64,8.28,11.08,15.25,16.6c15.72,8.55,26.16,13.18,33,24.14c3.34-18.49-46.56-22.18-40.12-57.85
				c-0.67-14.25,1.77-15.44-8.32-24.14c20.02,0.59,30.93,33.46,32.02,39.45c2,11.02,8.69,11.6,17.88,25.97
				c1.32,0.48-16.43-38.29,4.74-71.49c0,0,7.13,17.25,3.77,28.56c-2.03,6.81-0.15,14.35,0.23,18.62
				c0.39,4.36-0.87-15.74,14.25-26.12c0.94,7.6,8.22,19.37,1.32,31.99c-8.4,15.35-9.01,9.83-9.14,28.71
				c0.76-0.33,2.93-13.02,8.7-20.22c12.18-15.22,3.48-23.41,15.36-36.6c0.95,6.59,2.63,3.98,3.34,9.86
				c1.59,13.19-12.17,27.61-9.13,27.17c3.5-0.5,9.13-3.54,11.02-13.55c0,0,5.07,9.14,0.43,12.18c-8.4,5.51-10.14,11.45-8.84,18.11
				c6.74-8.05,15.94-16.96,14.35-28.41c0.76-6.92,8.25-9.72,9.75-25.78c0.25-2.67,2.91-5.9,5.57-7.31
				c-1.17,9.02,5.85,18.35-2.13,29.4c1.82,0.97,8.56-8.61,18.41-5.12c-19.78,3.56-14.01,24.99-29.16,34.91
				c-4.57,2.99-3.79,6.35-5.15,6.73c13.53-0.76,23.96-16.88,25.77-18.11c13.6-9.19,16.57-10.6,22.01-25.51
				c2.13-5.67,0.58-8.17,8.12-15.82c3.31,7.54-1.5,23.17-2.64,26.54c-2.43,7.2-10.99,13.42-9.18,13.42
				c36.46-16.09,36-26.89,44.72-38.42c2.62-4.4,15.58-12.04,20.43-12.75c-1.18,2.41-6.22,6.45-6.46,10.81
				c-0.44,8.06-3.04,12.97-7.12,19.44c2.27,2.81,6.61-5.31,11.07-1.23C409.07,417.35,406.44,423.9,401.87,427.76 M368.49,416.32
				c1.05-3.78,1.05-6.38,1.54-9.72c0.22-1.43,0.25-1.26,0.32-2.46c0.02-0.4,10.3,8.55,10.88,8.92c-2.58,3.23-4.79,4.39-7.25,6.68
				C372.24,418.24,368.39,416.69,368.49,416.32 M371.61,421.9c-4.75,4.17-7.85,5.66-6.82,3.58c1.16-2.31,2.02-4.27,2.66-6
				C367.66,418.92,371.61,421.9,371.61,421.9 M418.2,381.47c-4.35,1.13-15.81,5.71-18.58,10.21c1.47-24.78-6.54-49.12-9.08-55
				c-4.97-11.45,2.22,26.65,2.71,35.42c0.01,0.39-41.13-52.87-16.29-11.85c6.44,10.63,16.49,17.57,16.5,17.75
				c0.17,7.4-0.33,12.84-1.73,16.81c-2.53,2.02-56.02-71.18-26.45-20.49c3.67,6.29,25.11,25.31,24.94,25.7
				c-1.36,2.89-3.77,7.09-7.1,10.19c-0.56-0.56-12.34-9.24-12.42-9.77c-0.89-5.66-0.93-11-7.92-6.99c0,0-26.35-30.68-14.15-9.18
				c5.33,9.41,8.83,10.44,10.26,12.12c0,0-4.09,5.54-5.4,11.43c-0.53,2.35-22.84-24.74-14.09-7.72c2.81,5.45,13.01,11.41,12.9,11.79
				c-1.04,3.54-2.1,6.98-3.22,9.22c-1.4,2.83-21,18.45-20.97,18.43c0,0,3.83-12.38,12.16-18.43c4.75-3.48,4.77-2.72,7.92-4.7
				c-0.07-1.83-1.83-4.82-4.11-5.6c-2.86-1.01-12.14,0.67-12.14,0.67c0.87-4.64-3.19-14.64-3.14-25.64
				c-3.5,0.35-9.62,5.75-11.11,8.82c-1.07,18.22-5.03,12.76-8.74,25.88c-4.03-5.5,0.28-13.4-3.67-18.55
				c-5.43-7.08-6.25-11.85-7.06-20.56c1.27-0.71,6.82-6.83,1.77-19.68c-0.82-20.2,8.2-27.92-7.93-42.05
				c1.36-0.44,2.33-10.56,2.33-10.57c11.89,6.34,9.53-7.34,14.16-10.03c7.35-4.27,6.02-8.69,2.72-14.2
				c21.03,5.98-0.95,20.36,8.57,20.67c6.9,0.21,11.53-1.54,14.53-6.18c3.19-4.91-0.55-7.91,8.37-15.87c0.89-0.8,3.26-6.11-3.81-7.56
				c-1.55-0.33,0.01-6.37,0.01-6.37c-5.66,4.79-7.45,11.54-16.55,7.28c-4.66-2.19-7.69-0.04-9.6,0.88c0,0-0.97-3.81,2.89-5.09
				c9.96-3.35,12.43-7.33,11.88-9.5c-1.34-5.18-1.75,0-1.46-5.45c0.12-2.17,2.64-5.11,4.73-7.63c6.76-8.15,11.54-5.1,13.27-4.38
				c3.93-3.04,4.62-2.82,8.27-4.27c6.26-2.46,19.82,1.62,27.4,5.14c3.68,1.67,8.07,2.66,12.35,1.72c-0.04,2.21-1.59,3.4-3.13,3.84
				c-2.37,0.74-5.19,0-5,1.73c0.1,1.01,3.35,1.19,5.37,1.74c11.22,3.07,25.77,13.13,16.22,11.01c-1.13-0.25,6.88,5.98,12.93,14.09
				l21.41,20.8c-0.98,1.19-8.5,0.11-32.28-22.17c-3.38,3.02,28.93,27.37,42.26,53.21c-1.15,0.8-17.77-5.25-23.76-11.43
				c-9.24-9.55-19.85-33.84-24.21-30.29c-0.52,0.2,17.56,28.35,26.49,45.05c4.51,8.45,8.22,20.56,8.53,29.68
				c1.43,44.97-5.34,41.52-5.34,41.52c-10.53-35.44-15.46-76.6-30.84-95.59C394.66,303.87,417.23,344.68,418.2,381.47
				 M434.82,140.49c-0.09-0.69-0.24-1.75-0.45-3.24c-0.32-2.32-7-3.67-11.71-1.61c-6.6,2.88-23.12,12.32-29.16,10.54v-23.25
				c14.88,6.45,20.69,0.62,25.47,0.62c14.69,0,15.42,13.7,15.42,13.7C434.59,138.74,434.72,139.79,434.82,140.49 M419.55,172.32
				c12.9-1.89,14.85,13.34,14.85,13.34h-0.03c-3.17-2.53-9.56-3.67-13.88-0.88c-14.41,9.28-27.4,9.38-27.4,9.38v-23.25
				C393.09,170.91,395.82,175.78,419.55,172.32 M388.73,219.55c-23.41,1.6-71.96-11.73-84.31-11.73c-25.47,0-37.79,9.94-37.79,9.94
				s0.03-115.61,0-119.78c0,0,33.47-15.69,57.82-6.71c29.82,11.01,64.28,6.13,64.28,6.13V219.55z M291.76,237.6
				c0.78,4.64-3.52,5.8-3.51,5.79c6.68,1.56,9.87-2.42,11.18-4.93c2.57,10.67-8.19,11.27-11.54,11.91c-0.01,0,5.45,1.57,5.73,5.12
				c0.71,9.02,6.51,8.25,7.76,7.54c-0.2,1.09-1.99,6.53-8.51,1.62c-1.11,1.09,1.78,2.78,2.35,7.25c0.74,5.66,0.55,10.91,7.09,14.37
				c-4.01,3.19-8.73-5.12-9.14-4.12c-0.46,1.11,5.57,4.16-1.07,19.82c-3.03-1.74-1.34-1.41-4.86-5.58c-2.69-2.25-3.75-2.76-1.5,0.95
				c3.91,4.9,4.84,16.09,3.49,19.11c-3.23-1.4-2.39-3.98-6.21-7.49c-0.35,1.5,1.17,8.92,5.1,12.47c6.81,6.14,9.21,13.56,9.34,15.02
				c0.54,5.58-1.22,12.93-1.88,20.13c-3.26-0.47-6.04-9.74-6.83-9.22c-0.96,0.63,0.41,9.07,6.57,14.83
				c2.98,8.71,1.78,13.38,0.99,13.7c-1.05,0.45-4.36-8.9-6.17-7.28c8.76,22.29,2.63,30.05,0.31,36.92c-1.81-7.04-2.73-12.31-5-20.28
				c-4.77,3.75-5.92,9.31-11.75,14.39c0-9.09-5.26-31.03-9.42-36.15c-0.19-0.23-7.53,19.67-10.87,28.53c-4.34,11.47-5.01,25.82,0,37
				c-10.82-15.38-11.98-44.03-2.65-47.89c0.81-2.05-0.56-8.79-2.64-7.95c-0.6,3.3-0.2,6.11-2.93,9.33
				c-7.16-2.09-3.9-10.83-3.25-13.73c9.29-11.15,3.49-13.72,3.05-13.43c-1,2.55-1.88,5.68-4.72,6.84
				c-5.96-10.25-2.14-26.32,9.18-38.34c0.48-4.48-5.07,3.34-8.67,3.07c-0.94-8.65,2.19-23.64,18.18-24.19
				c-3.05-0.9-4.68-1.45-5.43-4c4.83-0.72,19.99-1.87,17.49-13.83c-1.44,1.43-1.9,3.58-5.85,5.99c-2.66,1.62-5.55,1.76-7.05-0.58
				c7.03-2.33,4.71-10.88-4.47-8.37c-2.81,0.77-6.92-2.17-7.12-5.43c2.04,2.04,6.18,0.53,8.57-1.02c10.33-6.71,16.63,3,18.02,5.1
				c0.42,0,4.63-9.72-10.03-12.33c-1.23-3.42-4.58-9.45-14.53-8.69c-3.28-11.57-13.2-5.87-12.87-0.63
				c-10.55-7.76,0.18-17.56,4.44-19.07c2.95,0.24,2.3,9.59,7.48,8.01c1.25-0.37-4.03-6.44-2-9.18c4.75-2.72,4.65,3.48,6.99,1.17
				c1.16-4.06,5.83-6.33,9.67-6.77C273.05,231.58,281.42,243.39,291.76,237.6 M261.02,217.67c0,0-15.87-8.61-34.49-9.85
				c-18.01-1.19-54.39,13.19-82.32,11.29V96.37c0,0,31.85,4.23,44.94-0.81c44.49-17.16,71.87,2.01,71.87,2.01V217.67z
				 M138.54,191.99h-15.16v-14.92h15.16V191.99z M138.54,140.04h-15.16v-14.91h15.16V140.04z M105.55,196.29
				c-17.79,0-17.79-26.06,0-26.06C122.65,170.23,122.76,196.29,105.55,196.29 M105.55,144.21c-17.39,0-17.02-26.07,0-26.07
				C122.65,118.14,122.65,144.21,105.55,144.21 M220.14,265.97c-3.17-5.42,3.79-10.59,3.79-10.59c-0.21,15.24,19.27,4.78,29.44,9.63
				c2.45,1.12,4.16,3.27,5.17,5.54C247.61,262.98,227.39,278.34,220.14,265.97 M167.48,395.04c0.09,5.22-0.29,9.09,1.24,14.4
				c2.47,8.01,1.23,5.54-2.13,2.79c-2.67-2.97-5.17-5.42-6.46-8.89C159.81,400.86,161.79,400.73,167.48,395.04 M128.25,287.31
				l-0.3-0.3c-0.35,0-25.32,15.75-41.54,8.19c12.08-6.68,53.94-33.28,65.38-40.82c5.41,1.16,7.59-0.78,9.31-1.99
				c-4.38,0.27-18.87,2.53-11.54-10.44c2.81,11.63,23.15,0.93,30.45-0.75c20.34-4.68,20.2,17.06,18.46,26.05
				c-0.65,3.35,6.23,5.73,9.62,5.25c-5.83,14.36-15.79,0.82-16.97,6.3c-0.48,2.22-7.15,3.97-7.12,9.48
				c0.04,7.54,2.99,3.42,3.26,9.26c0.3,5.66-2.41,1.25-1.8,7.38c0.98,9.72,17.06-1.3,23.71,1.34c3.32,1.31,5.53,4.29,8.77,3.7
				c0.94-0.78,0.52-4.46,0.37-5.77c-0.34-3.09-6.05-3.45-8.71-7.67c-2.31-3.67,2.63-14.74,5.3-17.99
				c3.84,18.26,20.96,12.53,23.51,31.74c1.61,5.43-5.88,11.47,0.2,20.3c-4.52,4.39-9.94,25.18-0.49,34.94
				c-1.6,4.42-3.71,14.62,4.7,20.58c-2.83,6.03-2.18,13.39,0.2,20.89c-5.23,0.02-4.19-29.38-35.58-30.31
				c-0.7-0.22-0.87,3.33,0.03,4.92c3.76,6.61,8.81,6.22,7.73,21.77c-0.37,5.32-3.49-0.93-5.15-2.4c-3.8-3.36-6.74-3.8-8.39-14.74
				c-12.75,10-11.5,22.1-10.71,28.26c0.01,0.01-2.81-7.67-6.03-15.55c-0.17-0.42,12.95-16.21,15.04-19.96
				c26.49-47.67-17.1,15.41-17.19,15.2c-2.35-5.43-4.4-10.11-5.78-11.6c0.33-0.66,7.61-8.77,10.89-15.61
				c20.48-42.66-12.17,14.2-13.34,13.15c-2.47-2.22-4.51-5-6.07-4c-0.37,6.55-1.93,5.66-1.48,12.35
				c-3.41,4.56-10.74,11.72-15.86,15.27c0,0-1.28-11.84-0.94-12.26c2.57-3.13,12.65-13.93,14.71-17.16
				c33.57-52.72-15.71,12.7-15.8,12.14c-0.35-2.08-3.05-5.53-5.92-8.46c0,0,10.88-14.83,13.56-20.34
				c20.42-41.99-16.41,18.61-16.82,18.39c-0.88-0.46-0.98-0.45-2-0.81c-1.03-0.35,1.12-12.09,2.55-19.17
				c2.76-13.99-4.65-2.71-6.67,19.46c-1.89,0.3-6.49,0.77-8.23,2.36c1.12,5.92,2.53,1.36,5.01,7.05c2.97,6.81-4.14,17.98,2.05,26.15
				c2.39,3.16,2.52,2.63,2.06,4.7c-3.8-0.27-6.11-0.35-8.51,2.94c-4.67-21.24-4.53-31.46-3.44-53.05
				c0.49-9.81,3.71-24.65,2.24-24.94c-1.4-0.27-23.64,57-29.01,68.23c-9.38-3.17,5.84-52.73,25.17-76.59
				c1.82-7.59-10.13,7.7-17.28,13.79c-6.55,5.58-14.84,12.86-23.87,10.37c11.6-12.27,38.19-35.22,41.15-40.96
				c2.48-4.92-18.14,15.3-39.93,7.78C95.3,315.81,128.2,299.01,128.25,287.31 M128.03,426.77c3.64,2.47,7.93,3.56,11.86,5.24
				c4.87,12.73,0.12,25.25-2.62,20.06C132.48,442.97,130.59,435.41,128.03,426.77 M463.8,355.95l-0.02-283.74
				c-227.94-21.98-399.98,0-399.98,0s0,283.72,0,283.78c18.17,192.34,198.31,214.93,200.02,214.62
				C296,564.81,447.03,534.45,463.8,355.95"/>
		</g>
	</g>
</g>
<g id="TMs" class="st0">
	<g class="st1">
		<path class="st4" d="M414.37,514.17h-6.22v-3.19h15.9v3.19h-6.22v16.41h-3.47V514.17z"/>
		<path class="st4" d="M427.69,510.98h3.67l5.96,9.27l5.96-9.27h3.67v19.6h-3.44v-14.06l-6.19,9.24h-0.11l-6.13-9.18v14h-3.39
			V510.98z"/>
	</g>
</g>
</svg>
